<?xml version="1.0" encoding="UTF-8"?>
<svg width="16px" height="16px" viewBox="0 0 16 16" version="1.1" xmlns="http://www.w3.org/2000/svg" xmlns:xlink="http://www.w3.org/1999/xlink">
    <title>切片</title>
    <g id="页面-1" stroke="none" stroke-width="1" fill="none" fill-rule="evenodd">
        <g id="颜色/icon/状态色板" transform="translate(-160.000000, -618.000000)">
            <g id="编组-14" transform="translate(160.000000, 618.000000)">
                <rect id="矩形备份" x="0" y="0" width="16" height="16"></rect>
                <g id="编组-13" transform="translate(3.001438, 3.000000)" stroke="#8322FF" stroke-linecap="round" stroke-width="1.2">
                    <path d="M9.81463592,5.98009299 C9.73513009,6.39577349 9.60085417,6.80673987 9.40909061,7.20285012 C9.2936055,7.4440371 9.15918871,7.67335406 9.00484474,7.89293614 L8.85545391,8.09440158 L8.85545391,8.09440158 C8.62420225,8.39187831 8.36380885,8.6568039 8.08071349,8.88767158 L7.77728254,9.11579499 L7.77728254,9.11579499 L7.6534553,9.19942098 L7.6534553,9.19942098 L7.448486,9.32573016 L7.448486,9.32573016 L7.14743241,9.48842983 L7.14743241,9.48842983 L7.02093631,9.54790596 L7.02093631,9.54790596 C6.87846934,9.61418446 6.73324095,9.67296056 6.58597562,9.72445801 L6.3273817,9.80594071 L6.3273817,9.80594071 L6.22314834,9.83562123 L6.22314834,9.83562123 L5.99953552,9.88939073 L5.99953552,9.88939073 L5.73739349,9.93870638 L5.73739349,9.93870638 L5.43868489,9.97736864 L5.43868489,9.97736864 L5.33679083,9.98670385 L5.33679083,9.98670385 L5.09177899,10 L5.09177899,10 L4.76679882,9.99901908 L4.76679882,9.99901908 L4.67909839,9.99405174 C4.52495719,9.98641293 4.37077042,9.9710704 4.21702,9.94818818 L3.86771793,9.88298473 L3.86771793,9.88298473 L3.62462816,9.82202957 L3.62462816,9.82202957 L3.37195431,9.74430138 L3.37195431,9.74430138 L3.14813105,9.66273079 L3.14813105,9.66273079 C2.99986086,9.60551148 2.85412233,9.54042624 2.71116608,9.46795745 L2.64260367,9.43252139 C2.43758177,9.32450791 2.23854524,9.20111331 2.0471987,9.06233759 L1.8392803,8.90297658 L1.8392803,8.90297658 C1.4934874,8.62494406 1.19302974,8.30623413 0.94076796,7.9580775 L0.743297801,7.66408891 L0.743297801,7.66408891 L0.57652405,7.37356958 L0.57652405,7.37356958 L0.550873858,7.32436742 C0.410573468,7.054767 0.297424693,6.77470597 0.210771247,6.48834278 L0.134021813,6.20403934 L0.134021813,6.20403934 L0.0716478365,5.90007783 L0.0716478365,5.90007783 L0.0222639199,5.5386604 L0.0222639199,5.5386604 L0,5.20352143 L0,5.20352143 L0.000613474885,4.86677434 L0.000613474885,4.86677434 L0.00558081595,4.7790739 L0.00558081595,4.7790739 C0.0205368463,4.48304195 0.0632640019,4.18678433 0.133714353,3.89381457 L0.163953444,3.77625983 L0.163953444,3.77625983 C0.197981909,3.64704435 0.237986548,3.5183084 0.28355056,3.39062756 C0.46621944,2.87499419 0.736991003,2.38395885 1.09569156,1.94044789 C1.30681,1.67772498 1.54137241,1.44117006 1.79448,1.23202078 L2.09655557,1.00193487 L2.09655557,1.00193487 L2.34784982,0.835635457 L2.34784982,0.835635457 L2.67526514,0.650849371 L2.67526514,0.650849371 L2.97738849,0.506692986 L2.97738849,0.506692986 L3.07727123,0.464535624 C3.22987826,0.40228956 3.38496231,0.347975822 3.54189206,0.301594411 L3.80307781,0.23280184 L3.80307781,0.23280184 L3.90378023,0.209426626 L3.90378023,0.209426626 L4.16072276,0.161150419 L4.16072276,0.161150419 L4.46097216,0.122239432 L4.46097216,0.122239432 L4.56286621,0.112904219 L4.56286621,0.112904219 L4.80787805,0.0996080714 L4.80787805,0.0996080714 L5.13285822,0.100588987 L5.13285822,0.100588987 L5.22055866,0.105556328 C5.37166171,0.113031199 5.52280698,0.127926568 5.67354206,0.150070506 L6.03338997,0.216949925 L6.03338997,0.216949925 L6.31249339,0.288170437 L6.31249339,0.288170437 L6.52700687,0.354939547 C7.1297863,0.556919031 7.70141177,0.878070841 8.20512021,1.31839498 L8.45114449,1.54848807" id="路径"></path>
                    <path d="M6.84372234,0.000674244027 L6.84372234,2.2764785 C6.84372234,2.38693545 6.93326539,2.4764785 7.04372234,2.4764785 L9.32087509,2.4764785 L9.32087509,2.4764785" id="路径-3" transform="translate(8.082299, 1.238576) rotate(-90.000000) translate(-8.082299, -1.238576) "></path>
                </g>
            </g>
        </g>
    </g>
</svg>