<?xml version="1.0" encoding="UTF-8"?>
<svg width="14px" height="14px" viewBox="0 0 14 14" version="1.1" xmlns="http://www.w3.org/2000/svg" xmlns:xlink="http://www.w3.org/1999/xlink">
    <title>切片</title>
    <g id="页面-1" stroke="none" stroke-width="1" fill="none" fill-rule="evenodd">
        <g id="颜色/icon/状态色板" transform="translate(-30.000000, -619.000000)">
            <g id="The-tree_14备份" transform="translate(30.000000, 619.000000)">
                <rect id="矩形" opacity="0.400000006" x="0" y="0" width="14" height="14"></rect>
                <rect id="矩形" fill="#170C2C" opacity="0.900000036" x="1.5" y="3" width="10" height="1.2" rx="0.6"></rect>
                <rect id="矩形备份-12" fill="#170C2C" opacity="0.900000036" x="1.5" y="6" width="10" height="1.2" rx="0.6"></rect>
                <rect id="矩形备份-13" fill="#170C2C" opacity="0.900000036" x="1.5" y="9" width="7" height="1.2" rx="0.6"></rect>
                <path d="M8.4526494,8.59768991 L10.3192457,8.37861331 C10.4289496,8.3657377 10.52832,8.44423257 10.5411956,8.55393652 C10.5429787,8.56912913 10.5430129,8.58447614 10.5412977,8.59967655 L10.3298056,10.4738574 C10.3174197,10.5836177 10.2184006,10.6625552 10.1086403,10.6501693 C10.0636291,10.64509 10.0216753,10.6248817 9.98964561,10.592852 L8.3345414,8.93774783 C8.25643654,8.85964297 8.25643654,8.73300998 8.3345414,8.65490512 C8.36635469,8.62309183 8.40796531,8.60293434 8.4526494,8.59768991 Z" id="矩形备份-14" fill="#8322FF" transform="translate(9.306084, 9.617844) rotate(-315.000000) translate(-9.306084, -9.617844) "></path>
            </g>
        </g>
    </g>
</svg>